:SAMPLES-PER-SECOND 30
:FULLY-SPECIFIED
:DEGREES
754
root  -28.3912 38.6574 19.2863 -1.37531 74.2185 3.09897
RightUpLeg  22.2723 -16.7126 -9.34707
RightLeg  14.4885 3.68683 1.99058
RightFoot  -19.0384 0.64404 11.3468
RightToes  5.47152e-009 0 -3.6325e-017
Spine  5.82693 0.800384 5.26685
Spine1  13.0309 2.82143 -6.44187
HEad  -15.2753 9.81203 -1.21935
LeftShoulder1  -0.182993 3.96036 -33.916
LeftArm  -4.6 17.4713 -41.5757
LeftForeArm  38.8435 -4.22169 -8.4071
LeftHand  0.0508675 2.50056 -2.66152
RightShoulder  -0.704731 -5.51348 28.399
RightArm  20.104 1.57239 48.2357
RightForeArm  -2.63464 20.887 5.10916
RightHand  -0.503901 2.79379 -7.37067
LeftUpLeg  -17.0862 4.23429 -6.86928
LeftLeg  12.4713 10.8167 0.777145
LeftFoot  6.06248 -1.80628 11.5163
LeftToes  -4.29285e-010 1.49941e-010 2.15559e-012
755
root  -27.1015 38.5137 19.64 4.08691 74.7768 9.16525
RightUpLeg  20.7068 -16.172 -11.4998
RightLeg  22.6535 4.48886 1.67352
RightFoot  -17.8365 0.865186 17.9867
RightToes  5.47152e-009 0 -3.6325e-017
Spine  5.78896 1.21975 3.42223
Spine1  13.1714 3.22805 -7.20525
HEad  -14.6476 9.72155 -1.22087
LeftShoulder1  -0.228744 4.07007 -34.2384
LeftArm  -4.80477 15.7119 -40.363
LeftForeArm  38.1229 -3.82937 -8.19424
LeftHand  0.0417832 2.89735 -2.78104
RightShoulder  -0.685374 -5.46769 28.2198
RightArm  19.1437 1.16768 49.9438
RightForeArm  -1.15393 17.7262 5.66166
RightHand  -0.504991 3.39115 -6.91514
LeftUpLeg  -17.055 6.70116 -9.62247
LeftLeg  17.4029 7.99051 2.48088
LeftFoot  2.92669 -1.42971 11.2695
LeftToes  -4.29285e-010 1.49941e-010 2.15559e-012
756
root  -25.8983 38.518 19.8775 5.96341 74.6698 11.3612
RightUpLeg  16.2531 -12.4486 -11.4587
RightLeg  33.1809 2.82969 1.75565
RightFoot  -11.2251 -0.0655648 22.7063
RightToes  5.47152e-009 0 -3.6325e-017
Spine  6.6206 1.76022 3.92871
Spine1  12.2187 4.16765 -9.51848
HEad  -13.8658 9.7026 -1.97075
LeftShoulder1  -0.164756 3.91723 -33.7336
LeftArm  -4.88128 14.1488 -40.0014
LeftForeArm  36.8675 -4.05367 -8.13314
LeftHand  0.0345753 3.2652 -2.96009
RightShoulder  -0.619837 -5.29204 27.9206
RightArm  17.7746 0.420056 51.1722
RightForeArm  2.6947 14.2204 6.65861
RightHand  -0.315447 2.56895 -4.76102
LeftUpLeg  -15.7709 7.48954 -10.2132
LeftLeg  19.5022 7.76343 2.55664
LeftFoot  0.190485 -1.22414 12.0451
LeftToes  -4.29285e-010 1.49941e-010 2.15559e-012
757
root  -24.7136 38.6393 20.1161 8.85294 73.9675 14.7633
RightUpLeg  9.80538 -7.84371 -11.6481
RightLeg  45.2553 2.56447 2.50856
RightFoot  0.658085 -1.81492 18.1021
RightToes  5.47152e-009 0 -3.6325e-017
Spine  7.61452 2.30288 3.0262
Spine1  10.9252 4.65945 -10.2455
HEad  -13.6785 10.3168 -3.38162
LeftShoulder1  -0.143991 3.86539 -33.6997
LeftArm  -4.87299 12.9925 -39.6697
LeftForeArm  35.0321 -5.77736 -8.17818
LeftHand  0.0212022 3.24737 -2.28702
RightShoulder  -0.513913 -5.02003 27.0809
RightArm  18.1859 0.905341 52.4521
RightForeArm  8.12031 11.0329 7.93329
RightHand  -0.130553 0.328003 -2.70771
LeftUpLeg  -13.2269 7.51706 -10.7049
LeftLeg  19.5613 8.60759 2.19995
LeftFoot  -1.81983 -0.965707 11.6689
LeftToes  -4.29285e-010 1.49941e-010 2.15559e-012
758
root  -23.5747 38.7091 20.3806 12.2989 74.6042 18.4407
RightUpLeg  3.59828 -4.93066 -11.7286
RightLeg  54.9798 3.16028 4.45161
RightFoot  10.0274 -2.21269 11.7455
RightToes  5.47152e-009 0 -3.6325e-017
Spine  7.60753 2.08861 1.09211
Spine1  10.7757 4.01245 -9.6756
HEad  -13.5958 10.9604 -4.31267
LeftShoulder1  -0.134051 3.84238 -33.4476
LeftArm  -4.15139 11.1479 -39.8179
LeftForeArm  30.9761 -7.69226 -8.32475
LeftHand  0.0142693 2.5562 -1.13648
RightShoulder  -0.461662 -4.87009 26.9052
RightArm  20.3302 2.31344 53.2251
RightForeArm  13.3741 9.87936 8.77011
RightHand  -0.0921964 -0.755897 -2.34434
LeftUpLeg  -11.0038 6.64162 -11.269
LeftLeg  19.6726 8.80429 1.88438
LeftFoot  -3.88003 -0.694259 10.9777
LeftToes  -4.29285e-010 1.49941e-010 2.15559e-012
